<svg width="26" height="26" viewBox="0 0 26 26" fill="none" xmlns="http://www.w3.org/2000/svg">
<path d="M13.0021 1.18935V11.735H22.6783L20.4393 9.00108C20.2738 8.7996 20.1732 8.53231 20.1558 8.24792C20.1384 7.96353 20.2053 7.68096 20.3444 7.45173L20.4393 7.31852C20.6046 7.11733 20.8236 6.99516 21.0565 6.97421C21.2893 6.95325 21.5207 7.03492 21.7083 7.20435L21.8176 7.31852L25.7143 12.0728C25.8795 12.2742 25.9799 12.5412 25.9973 12.8252C26.0147 13.1092 25.948 13.3915 25.8092 13.6206L25.7143 13.7538L21.8189 18.516C21.6448 18.7273 21.4118 18.8508 21.1664 18.8618C20.921 18.8728 20.6812 18.7704 20.495 18.5751C20.3088 18.3798 20.1898 18.106 20.1619 17.8084C20.134 17.5108 20.1992 17.2113 20.3444 16.9698L20.438 16.8366L22.6653 14.1137H13.0034L13.0021 24.8117C13.002 24.9852 12.9707 25.1566 12.9105 25.3139C12.8503 25.4711 12.7626 25.6104 12.6536 25.7219C12.5445 25.8335 12.4168 25.9145 12.2794 25.9595C12.1419 26.0044 11.9981 26.0121 11.8579 25.982L0.806132 23.6017C0.580209 23.5532 0.375536 23.4091 0.228097 23.1948C0.0806578 22.9804 -0.00010773 22.7096 1.07849e-07 22.4298V3.40314C3.4394e-06 3.12125 0.0821005 2.84852 0.231651 2.63358C0.381202 2.41865 0.588484 2.2755 0.816533 2.22964L11.8683 0.0158411C12.0079 -0.0122281 12.1509 -0.00291381 12.2872 0.0431375C12.4236 0.0891888 12.5501 0.170874 12.6579 0.282525C12.7658 0.394175 12.8525 0.533118 12.9119 0.689709C12.9713 0.846299 13.0021 1.01679 13.0021 1.18935ZM8.45398 12.52C8.10828 12.52 7.77674 12.6875 7.53229 12.9856C7.28785 13.2838 7.15052 13.6881 7.15052 14.1098C7.15052 14.5314 7.28785 14.9358 7.53229 15.2339C7.77674 15.5321 8.10828 15.6996 8.45398 15.6996C8.79968 15.6996 9.13122 15.5321 9.37567 15.2339C9.62012 14.9358 9.75744 14.5314 9.75744 14.1098C9.75744 13.6881 9.62012 13.2838 9.37567 12.9856C9.13122 12.6875 8.79968 12.52 8.45398 12.52ZM14.3023 23.6255H15.297L15.4296 23.6144C15.6633 23.5752 15.8774 23.4341 16.0323 23.2172C16.1873 23.0003 16.2725 22.7222 16.2722 22.4345L16.2631 15.6948H14.3023V23.6255ZM14.3049 10.1429L14.3023 8.12095V2.21378H15.271C15.5064 2.21374 15.734 2.3176 15.9115 2.50619C16.0891 2.69478 16.2047 2.95535 16.2371 3.23981L16.2462 3.39997L16.2553 10.1429H14.3049Z" fill="black"/>
</svg>
