<svg width="26" height="26" viewBox="0 0 26 26" fill="none" xmlns="http://www.w3.org/2000/svg">
<path d="M11.375 22.75C11.375 22.75 9.75 22.75 9.75 21.125C9.75 19.5 11.375 14.625 17.875 14.625C24.375 14.625 26 19.5 26 21.125C26 22.75 24.375 22.75 24.375 22.75H11.375ZM17.875 13C19.1679 13 20.4079 12.4864 21.3221 11.5721C22.2364 10.6579 22.75 9.41793 22.75 8.125C22.75 6.83207 22.2364 5.59209 21.3221 4.67785C20.4079 3.76361 19.1679 3.25 17.875 3.25C16.5821 3.25 15.3421 3.76361 14.4279 4.67785C13.5136 5.59209 13 6.83207 13 8.125C13 9.41793 13.5136 10.6579 14.4279 11.5721C15.3421 12.4864 16.5821 13 17.875 13ZM8.476 22.75C8.23521 22.2427 8.11508 21.6865 8.125 21.125C8.125 18.9231 9.23 16.6562 11.271 15.08C10.2524 14.7655 9.19096 14.6119 8.125 14.625C1.625 14.625 0 19.5 0 21.125C0 22.75 1.625 22.75 1.625 22.75H8.476ZM7.3125 13C8.38994 13 9.42325 12.572 10.1851 11.8101C10.947 11.0483 11.375 10.0149 11.375 8.9375C11.375 7.86006 10.947 6.82675 10.1851 6.06488C9.42325 5.30301 8.38994 4.875 7.3125 4.875C6.23506 4.875 5.20175 5.30301 4.43988 6.06488C3.67801 6.82675 3.25 7.86006 3.25 8.9375C3.25 10.0149 3.67801 11.0483 4.43988 11.8101C5.20175 12.572 6.23506 13 7.3125 13Z" fill="black"/>
</svg>
