<svg width="26" height="26" viewBox="0 0 26 26" fill="none" xmlns="http://www.w3.org/2000/svg">
<path d="M7.30756 4.0625C6.82039 4.0625 6.4956 4.55 6.4956 4.875V8.9375H4.8717V4.875C4.8717 4.3875 4.54692 4.0625 4.05975 4.0625C3.57258 4.0625 3.2478 4.55 3.2478 4.875V8.9375H1.6239V4.875C1.6239 4.3875 1.29912 4.0625 0.811951 4.0625C0.32478 4.0625 0 4.55 0 4.875V10.2375C0 11.7 1.13673 12.8375 2.43585 13V24.375C2.43585 25.35 3.08541 26 4.05975 26C5.03409 26 5.68365 25.35 5.68365 24.375V13C6.98278 12.8375 8.11951 11.7 8.11951 10.2375V4.875C8.11951 4.55 7.79473 4.0625 7.30756 4.0625ZM10.5554 4.875V14.625H12.1793V24.375C12.1793 25.35 12.8288 26 13.8032 26C14.7775 26 15.4271 25.35 15.4271 24.375V0C12.6664 0 10.5554 2.1125 10.5554 4.875ZM21.9227 3.25C19.6492 3.25 17.8629 5.6875 17.8629 8.6125C17.7005 10.5625 18.6749 12.35 20.2988 13.4875V24.375C20.2988 25.35 20.9483 26 21.9227 26C22.897 26 23.5466 25.35 23.5466 24.375V13.4875C25.1705 12.35 26.1448 10.5625 25.9824 8.6125C25.9824 5.6875 24.1961 3.25 21.9227 3.25Z" fill="black"/>
</svg>
