<svg width="16" height="16" viewBox="0 0 16 16" fill="none" xmlns="http://www.w3.org/2000/svg">
<path d="M9.99991 12V12.5C9.99991 13.0304 9.7892 13.5391 9.41412 13.9142C9.03905 14.2893 8.53034 14.5 7.99991 14.5C7.46948 14.5 6.96077 14.2893 6.5857 13.9142C6.21062 13.5391 5.99991 13.0304 5.99991 12.5V12M13.3649 10.9822C12.5624 10 11.9958 9.5 11.9958 6.79219C11.9958 4.3125 10.7296 3.42906 9.68741 3C9.54897 2.94312 9.41866 2.8125 9.37647 2.67031C9.19366 2.04812 8.68116 1.5 7.99991 1.5C7.31866 1.5 6.80585 2.04844 6.62491 2.67094C6.58272 2.81469 6.45241 2.94312 6.31397 3C5.27054 3.42969 4.00554 4.31 4.00554 6.79219C4.00397 9.5 3.43741 10 2.63491 10.9822C2.30241 11.3891 2.59366 12 3.17522 12H12.8277C13.4062 12 13.6955 11.3872 13.3649 10.9822Z" stroke="#747474" stroke-linecap="round" stroke-linejoin="round"/>
</svg>
